<svg width="397" height="397" viewBox="0 0 397 397" fill="none" xmlns="http://www.w3.org/2000/svg">
<path d="M144.339 149.143C170.632 149.143 192.517 127.307 192.517 101.072C192.517 74.8364 170.632 53 144.339 53C118.046 53 96.161 74.8364 96.161 101.072C96.161 127.307 118.046 149.143 144.339 149.143ZM252.661 149.143C278.954 149.143 300.839 127.307 300.839 101.072C300.839 74.8364 278.954 53 252.661 53C226.525 53 204.64 74.8364 204.64 101.072C204.64 127.307 226.525 149.143 252.661 149.143ZM144.339 141.445C122.297 141.445 103.876 123.065 103.876 101.072C103.876 79.078 122.297 60.6977 144.339 60.6977C166.381 60.6977 184.802 79.078 184.802 101.072C184.802 123.065 166.381 141.445 144.339 141.445ZM252.661 141.445C230.619 141.445 212.355 123.065 212.355 101.072C212.355 79.078 230.619 60.6977 252.661 60.6977C274.703 60.6977 293.124 79.078 293.124 101.072C293.124 123.065 274.703 141.445 252.661 141.445ZM90.1781 246.072C116.471 246.072 138.356 224.235 138.356 198C138.356 171.765 116.471 149.928 90.1781 149.928C63.8848 149.928 42 171.765 42 198C42 224.235 63.8848 246.072 90.1781 246.072ZM306.979 246.072C333.273 246.072 355 224.235 355 198C355 171.765 333.273 149.928 306.979 149.928C280.686 149.928 258.801 171.765 258.801 198C258.801 224.235 280.686 246.072 306.979 246.072ZM90.1781 238.374C68.1358 238.374 49.7148 219.993 49.7148 198C49.7148 176.007 68.1358 157.626 90.1781 157.626C112.22 157.626 130.641 176.007 130.641 198C130.641 219.993 112.22 238.374 90.1781 238.374ZM306.979 238.374C284.937 238.374 266.516 219.993 266.516 198C266.516 176.007 284.937 157.626 306.979 157.626C329.022 157.626 347.285 176.007 347.285 198C347.285 219.993 329.022 238.374 306.979 238.374ZM144.339 343C170.632 343 192.517 321.164 192.517 294.928C192.517 268.693 170.632 246.857 144.339 246.857C118.046 246.857 96.161 268.693 96.161 294.928C96.161 321.164 118.046 343 144.339 343ZM252.661 343C278.954 343 300.839 321.164 300.839 294.928C300.839 268.693 278.954 246.857 252.661 246.857C226.525 246.857 204.64 268.693 204.64 294.928C204.64 321.164 226.525 343 252.661 343ZM144.339 335.302C122.297 335.302 103.876 316.922 103.876 294.928C103.876 272.935 122.297 254.555 144.339 254.555C166.381 254.555 184.802 272.935 184.802 294.928C184.802 316.922 166.381 335.302 144.339 335.302ZM252.661 335.302C230.619 335.302 212.355 316.922 212.355 294.928C212.355 272.935 230.619 254.555 252.661 254.555C274.703 254.555 293.124 272.935 293.124 294.928C293.124 316.922 274.703 335.302 252.661 335.302Z" fill="white"/>
</svg>
