<svg width="906" height="326" viewBox="0 0 906 326" fill="none" xmlns="http://www.w3.org/2000/svg">
<path d="M113.777 122.012C129.905 122.012 143.33 108.609 143.33 92.506C143.33 76.403 129.905 63 113.777 63C97.6479 63 84.2233 76.403 84.2233 92.506C84.2233 108.609 97.6479 122.012 113.777 122.012ZM180.223 122.012C196.352 122.012 209.777 108.609 209.777 92.506C209.777 76.403 196.352 63 180.223 63C164.191 63 150.767 76.403 150.767 92.506C150.767 108.609 164.191 122.012 180.223 122.012ZM113.777 117.287C100.256 117.287 88.9557 106.005 88.9557 92.506C88.9557 79.0065 100.256 67.7248 113.777 67.7248C127.298 67.7248 138.598 79.0065 138.598 92.506C138.598 106.005 127.298 117.287 113.777 117.287ZM180.223 117.287C166.702 117.287 155.499 106.005 155.499 92.506C155.499 79.0065 166.702 67.7248 180.223 67.7248C193.744 67.7248 205.044 79.0065 205.044 92.506C205.044 106.005 193.744 117.287 180.223 117.287ZM80.5533 181.506C96.6821 181.506 110.107 168.103 110.107 152C110.107 135.897 96.6821 122.494 80.5533 122.494C64.4245 122.494 51 135.897 51 152C51 168.103 64.4245 181.506 80.5533 181.506ZM213.543 181.506C229.672 181.506 243 168.103 243 152C243 135.897 229.672 122.494 213.543 122.494C197.414 122.494 183.99 135.897 183.99 152C183.99 168.103 197.414 181.506 213.543 181.506ZM80.5533 176.781C67.0322 176.781 55.7324 165.499 55.7324 152C55.7324 138.501 67.0322 127.219 80.5533 127.219C94.0744 127.219 105.374 138.501 105.374 152C105.374 165.499 94.0744 176.781 80.5533 176.781ZM213.543 176.781C200.022 176.781 188.722 165.499 188.722 152C188.722 138.501 200.022 127.219 213.543 127.219C227.064 127.219 238.268 138.501 238.268 152C238.268 165.499 227.064 176.781 213.543 176.781ZM113.777 241C129.905 241 143.33 227.597 143.33 211.494C143.33 195.391 129.905 181.988 113.777 181.988C97.6479 181.988 84.2233 195.391 84.2233 211.494C84.2233 227.597 97.6479 241 113.777 241ZM180.223 241C196.352 241 209.777 227.597 209.777 211.494C209.777 195.391 196.352 181.988 180.223 181.988C164.191 181.988 150.767 195.391 150.767 211.494C150.767 227.597 164.191 241 180.223 241ZM113.777 236.275C100.256 236.275 88.9557 224.993 88.9557 211.494C88.9557 197.995 100.256 186.713 113.777 186.713C127.298 186.713 138.598 197.995 138.598 211.494C138.598 224.993 127.298 236.275 113.777 236.275ZM180.223 236.275C166.702 236.275 155.499 224.993 155.499 211.494C155.499 197.995 166.702 186.713 180.223 186.713C193.744 186.713 205.044 197.995 205.044 211.494C205.044 224.993 193.744 236.275 180.223 236.275Z" fill="black"/>
<path d="M329.859 208.688C350.742 208.688 365.156 196.805 365.156 180.281V180.141C365.156 166.711 356.367 158.203 335.344 153.281L325.992 151.102C308.625 147.023 301.383 140.977 301.383 130.922V130.781C301.383 118.547 313.125 109.055 328.875 109.055C344.906 109.055 356.016 117.773 357.422 128.672L357.562 129.305H363.117L363.047 128.602C361.641 114.82 348.281 103.852 329.016 103.852C309.68 103.852 295.758 115.734 295.688 130.852V130.992C295.688 143.93 304.125 151.664 324.586 156.445L333.867 158.625C351.797 162.844 359.461 170.086 359.461 180.633V180.703C359.461 193.57 347.367 203.484 330.141 203.484C313.195 203.484 299.977 194.133 298.711 181.477L298.641 180.703H293.086L293.156 181.477C294.703 197.367 309.469 208.688 329.859 208.688ZM412.227 208.195C424.813 208.195 434.446 201.797 438.102 191.32H438.594V207H444.078V131.273H438.594V176.484C438.594 192.305 428.399 203.203 413.211 203.203C399.008 203.203 390.43 194.062 390.43 179.297V131.273H384.946V180.773C384.946 197.438 395.493 208.195 412.227 208.195ZM503.313 208.195C522.298 208.195 535.235 192.305 535.235 169.102V168.961C535.235 145.758 522.438 130.148 503.313 130.148C490.516 130.148 479.758 137.742 475.54 149.766H474.977V101.109H469.563V207H474.977V187.945H475.54C479.688 200.391 490.235 208.195 503.313 208.195ZM502.54 203.203C486.227 203.203 474.907 189.352 474.907 169.102V168.961C474.907 148.852 486.157 135.07 502.54 135.07C518.923 135.07 529.68 148.57 529.68 168.961V169.102C529.68 189.492 518.852 203.203 502.54 203.203ZM556.149 207H561.563V161.859C561.563 146.25 572.462 135.07 587.579 135.07C602.063 135.07 609.798 143.719 609.798 158.977V207H615.282V157.5C615.282 140.344 605.298 130.148 588.563 130.148C575.978 130.148 566.485 136.477 562.126 147.164H561.563V131.273H556.149V207ZM669.454 208.195C684.783 208.195 696.033 200.32 699.548 190.055L699.759 189.492H694.204L693.993 189.914C690.9 197.508 681.618 203.203 669.525 203.203C652.509 203.203 641.4 190.547 641.189 170.156H701.236V167.414C701.236 145.266 688.72 130.148 668.751 130.148C648.783 130.148 635.634 145.266 635.634 169.242V169.383C635.634 193.078 648.712 208.195 669.454 208.195ZM668.751 135.07C684.29 135.07 694.978 146.32 695.822 165.445H641.189C642.033 146.531 653.142 135.07 668.751 135.07ZM744.58 207.492C746.759 207.492 748.517 207.281 750.416 207V202.219C748.869 202.359 747.181 202.5 745.142 202.5C735.72 202.5 732.064 198.281 732.064 188.438V136.055H750.416V131.273H732.064V111.586H726.509V131.273H714.064V136.055H726.509V189.281C726.509 202.078 731.712 207.492 744.58 207.492Z" fill="black"/>
</svg>
