<svg width="192" height="178" viewBox="0 0 192 178" fill="none" xmlns="http://www.w3.org/2000/svg">
<path d="M62.7767 59.0119C78.9054 59.0119 92.33 45.6089 92.33 29.506C92.33 13.403 78.9054 0 62.7767 0C46.6479 0 33.2233 13.403 33.2233 29.506C33.2233 45.6089 46.6479 59.0119 62.7767 59.0119ZM129.223 59.0119C145.352 59.0119 158.777 45.6089 158.777 29.506C158.777 13.403 145.352 0 129.223 0C113.191 0 99.7666 13.403 99.7666 29.506C99.7666 45.6089 113.191 59.0119 129.223 59.0119ZM62.7767 54.2871C49.2555 54.2871 37.9557 43.0054 37.9557 29.506C37.9557 16.0065 49.2555 4.72481 62.7767 4.72481C76.2978 4.72481 87.5976 16.0065 87.5976 29.506C87.5976 43.0054 76.2978 54.2871 62.7767 54.2871ZM129.223 54.2871C115.702 54.2871 104.499 43.0054 104.499 29.506C104.499 16.0065 115.702 4.72481 129.223 4.72481C142.744 4.72481 154.044 16.0065 154.044 29.506C154.044 43.0054 142.744 54.2871 129.223 54.2871ZM29.5533 118.506C45.6821 118.506 59.1066 105.103 59.1066 89C59.1066 72.8971 45.6821 59.494 29.5533 59.494C13.4245 59.494 0 72.8971 0 89C0 105.103 13.4245 118.506 29.5533 118.506ZM162.543 118.506C178.672 118.506 192 105.103 192 89C192 72.8971 178.672 59.494 162.543 59.494C146.414 59.494 132.99 72.8971 132.99 89C132.99 105.103 146.414 118.506 162.543 118.506ZM29.5533 113.781C16.0322 113.781 4.73239 102.499 4.73239 89C4.73239 75.5005 16.0322 64.2188 29.5533 64.2188C43.0744 64.2188 54.3742 75.5005 54.3742 89C54.3742 102.499 43.0744 113.781 29.5533 113.781ZM162.543 113.781C149.022 113.781 137.722 102.499 137.722 89C137.722 75.5005 149.022 64.2188 162.543 64.2188C176.064 64.2188 187.268 75.5005 187.268 89C187.268 102.499 176.064 113.781 162.543 113.781ZM62.7767 178C78.9054 178 92.33 164.597 92.33 148.494C92.33 132.391 78.9054 118.988 62.7767 118.988C46.6479 118.988 33.2233 132.391 33.2233 148.494C33.2233 164.597 46.6479 178 62.7767 178ZM129.223 178C145.352 178 158.777 164.597 158.777 148.494C158.777 132.391 145.352 118.988 129.223 118.988C113.191 118.988 99.7666 132.391 99.7666 148.494C99.7666 164.597 113.191 178 129.223 178ZM62.7767 173.275C49.2555 173.275 37.9557 161.993 37.9557 148.494C37.9557 134.995 49.2555 123.713 62.7767 123.713C76.2978 123.713 87.5976 134.995 87.5976 148.494C87.5976 161.993 76.2978 173.275 62.7767 173.275ZM129.223 173.275C115.702 173.275 104.499 161.993 104.499 148.494C104.499 134.995 115.702 123.713 129.223 123.713C142.744 123.713 154.044 134.995 154.044 148.494C154.044 161.993 142.744 173.275 129.223 173.275Z" fill="black"/>
</svg>
